<svg width="17" height="16" viewBox="0 0 17 16" fill="none" xmlns="http://www.w3.org/2000/svg">
<path d="M4.66998 7.33333H7.33665" stroke="#EAB308" stroke-width="1.33333" stroke-linecap="round" stroke-linejoin="round"/>
<path d="M6.00331 6V8.66667" stroke="#EAB308" stroke-width="1.33333" stroke-linecap="round" stroke-linejoin="round"/>
<path d="M10.67 8H10.6766" stroke="#EAB308" stroke-width="1.33333" stroke-linecap="round" stroke-linejoin="round"/>
<path d="M12.67 6.66667H12.6766" stroke="#EAB308" stroke-width="1.33333" stroke-linecap="round" stroke-linejoin="round"/>
<path d="M12.2166 3.33333H5.12331C4.4635 3.33348 3.82717 3.57825 3.33734 4.0203C2.8475 4.46236 2.53895 5.07032 2.47131 5.72666C2.46731 5.76133 2.46465 5.79399 2.45998 5.82799C2.40598 6.27733 2.00331 9.63733 2.00331 10.6667C2.00331 11.1971 2.21403 11.7058 2.5891 12.0809C2.96417 12.4559 3.47288 12.6667 4.00332 12.6667C4.66998 12.6667 5.00332 12.3333 5.33665 12L6.27931 11.0573C6.52931 10.8073 6.86839 10.6667 7.22198 10.6667H10.118C10.4716 10.6667 10.8107 10.8073 11.0606 11.0573L12.0033 12C12.3366 12.3333 12.67 12.6667 13.3366 12.6667C13.8671 12.6667 14.3758 12.4559 14.7509 12.0809C15.1259 11.7058 15.3366 11.1971 15.3366 10.6667C15.3366 9.63666 14.934 6.27733 14.88 5.82799C14.8753 5.79466 14.8726 5.76133 14.8686 5.72733C14.8012 5.07087 14.4927 4.46275 14.0028 4.02055C13.513 3.57836 12.8766 3.3335 12.2166 3.33333Z" stroke="#EAB308" stroke-width="1.33333" stroke-linecap="round" stroke-linejoin="round"/>
</svg>
