<svg width="17" height="16" viewBox="0 0 17 16" fill="none" xmlns="http://www.w3.org/2000/svg">
<path d="M10.67 14V8.66667C10.67 8.48986 10.5997 8.32029 10.4747 8.19526C10.3497 8.07024 10.1801 8 10.0033 8H7.33665C7.15984 8 6.99027 8.07024 6.86525 8.19526C6.74022 8.32029 6.66998 8.48986 6.66998 8.66667V14" stroke="#6B7280" stroke-width="1.33333" stroke-linecap="round" stroke-linejoin="round"/>
<path d="M2.66998 6.66667C2.66994 6.47271 2.71221 6.28108 2.79384 6.10514C2.87548 5.92921 2.99451 5.7732 3.14265 5.648L7.80932 1.64867C8.04997 1.44527 8.35489 1.33368 8.66998 1.33368C8.98508 1.33368 9.28999 1.44527 9.53065 1.64867L14.1973 5.648C14.3455 5.7732 14.4645 5.92921 14.5461 6.10514C14.6278 6.28108 14.67 6.47271 14.67 6.66667V12.6667C14.67 13.0203 14.5295 13.3594 14.2795 13.6095C14.0294 13.8595 13.6903 14 13.3366 14H4.00332C3.64969 14 3.31056 13.8595 3.06051 13.6095C2.81046 13.3594 2.66998 13.0203 2.66998 12.6667V6.66667Z" stroke="#6B7280" stroke-width="1.33333" stroke-linecap="round" stroke-linejoin="round"/>
</svg>
